<svg width="20" height="26" viewBox="0 0 20 26" fill="none" xmlns="http://www.w3.org/2000/svg">
<path d="M19.368 6.89414C19.532 7.0582 19.625 7.27969 19.625 7.51211V24.375C19.625 24.859 19.234 25.25 18.75 25.25H1.25C0.766016 25.25 0.375 24.859 0.375 24.375V1.625C0.375 1.14102 0.766016 0.75 1.25 0.75H12.8629C13.0953 0.75 13.3195 0.842969 13.4836 1.00703L19.368 6.89414V6.89414ZM17.607 7.91406L12.4609 2.76797V7.91406H17.607ZM4.75 12.1797C4.69198 12.1797 4.63634 12.2027 4.59532 12.2438C4.5543 12.2848 4.53125 12.3404 4.53125 12.3984V13.7109C4.53125 13.769 4.5543 13.8246 4.59532 13.8656C4.63634 13.9066 4.69198 13.9297 4.75 13.9297H15.25C15.308 13.9297 15.3637 13.9066 15.4047 13.8656C15.4457 13.8246 15.4688 13.769 15.4688 13.7109V12.3984C15.4688 12.3404 15.4457 12.2848 15.4047 12.2438C15.3637 12.2027 15.308 12.1797 15.25 12.1797H4.75ZM4.75 15.8984C4.69198 15.8984 4.63634 15.9215 4.59532 15.9625C4.5543 16.0035 4.53125 16.0592 4.53125 16.1172V17.4297C4.53125 17.4877 4.5543 17.5433 4.59532 17.5844C4.63634 17.6254 4.69198 17.6484 4.75 17.6484H9.78125C9.83927 17.6484 9.89491 17.6254 9.93593 17.5844C9.97695 17.5433 10 17.4877 10 17.4297V16.1172C10 16.0592 9.97695 16.0035 9.93593 15.9625C9.89491 15.9215 9.83927 15.8984 9.78125 15.8984H4.75Z" fill="white"/>
</svg>
