<svg width="22" height="24" viewBox="0 0 22 24" fill="none" xmlns="http://www.w3.org/2000/svg">
<path d="M21.5 21.3334V5.00004C21.5 3.71321 20.4535 2.66671 19.1667 2.66671H16.8333V0.333374H14.5V2.66671H7.5V0.333374H5.16667V2.66671H2.83333C1.5465 2.66671 0.5 3.71321 0.5 5.00004V21.3334C0.5 22.6202 1.5465 23.6667 2.83333 23.6667H19.1667C20.4535 23.6667 21.5 22.6202 21.5 21.3334ZM7.5 19H5.16667V16.6667H7.5V19ZM7.5 14.3334H5.16667V12H7.5V14.3334ZM12.1667 19H9.83333V16.6667H12.1667V19ZM12.1667 14.3334H9.83333V12H12.1667V14.3334ZM16.8333 19H14.5V16.6667H16.8333V19ZM16.8333 14.3334H14.5V12H16.8333V14.3334ZM19.1667 8.50004H2.83333V6.16671H19.1667V8.50004Z" fill="white"/>
</svg>
