<svg width="24" height="24" viewBox="0 0 24 24" fill="none" xmlns="http://www.w3.org/2000/svg">
<path d="M12.0002 23.6667C10.4057 23.6667 8.89877 23.3603 7.47933 22.7474C6.05989 22.1353 4.8205 21.2992 3.76116 20.239C2.70105 19.1797 1.86494 17.9403 1.25283 16.5209C0.639941 15.1014 0.333496 13.5945 0.333496 12C0.333496 10.3862 0.639941 8.87454 1.25283 7.46521C1.86494 6.0551 2.70105 4.82037 3.76116 3.76104C4.8205 2.70093 6.05989 1.86443 7.47933 1.25154C8.89877 0.63943 10.4057 0.333374 12.0002 0.333374C13.6141 0.333374 15.1257 0.63943 16.535 1.25154C17.9451 1.86443 19.1798 2.70093 20.2392 3.76104C21.2993 4.82037 22.1354 6.0551 22.7475 7.46521C23.3604 8.87454 23.6668 10.3862 23.6668 12C23.6668 13.5945 23.3604 15.1014 22.7475 16.5209C22.1354 17.9403 21.2993 19.1797 20.2392 20.239C19.1798 21.2992 17.9451 22.1353 16.535 22.7474C15.1257 23.3603 13.6141 23.6667 12.0002 23.6667ZM12.0002 21.275C12.5057 20.575 12.9432 19.8459 13.3127 19.0875C13.6821 18.3292 13.9835 17.5223 14.2168 16.6667H9.7835C10.0168 17.5223 10.3182 18.3292 10.6877 19.0875C11.0571 19.8459 11.4946 20.575 12.0002 21.275V21.275ZM8.96683 20.8084C8.61683 20.1667 8.31077 19.5005 8.04866 18.8099C7.78577 18.12 7.56683 17.4056 7.39183 16.6667H3.95016C4.51405 17.6389 5.21872 18.4848 6.06416 19.2042C6.91039 19.9237 7.87794 20.4584 8.96683 20.8084ZM15.0335 20.8084C16.1224 20.4584 17.0896 19.9237 17.935 19.2042C18.7812 18.4848 19.4863 17.6389 20.0502 16.6667H16.6085C16.4335 17.4056 16.2149 18.12 15.9528 18.8099C15.6899 19.5005 15.3835 20.1667 15.0335 20.8084V20.8084ZM2.9585 14.3334H6.92516C6.86683 13.9445 6.82289 13.5603 6.79333 13.1807C6.76455 12.8019 6.75016 12.4084 6.75016 12C6.75016 11.5917 6.76455 11.1982 6.79333 10.8194C6.82289 10.4398 6.86683 10.0556 6.92516 9.66671H2.9585C2.86127 10.0556 2.78816 10.4398 2.73916 10.8194C2.69094 11.1982 2.66683 11.5917 2.66683 12C2.66683 12.4084 2.69094 12.8019 2.73916 13.1807C2.78816 13.5603 2.86127 13.9445 2.9585 14.3334ZM9.2585 14.3334H14.7418C14.8002 13.9445 14.8441 13.5603 14.8737 13.1807C14.9024 12.8019 14.9168 12.4084 14.9168 12C14.9168 11.5917 14.9024 11.1982 14.8737 10.8194C14.8441 10.4398 14.8002 10.0556 14.7418 9.66671H9.2585C9.20016 10.0556 9.15661 10.4398 9.12783 10.8194C9.09827 11.1982 9.0835 11.5917 9.0835 12C9.0835 12.4084 9.09827 12.8019 9.12783 13.1807C9.15661 13.5603 9.20016 13.9445 9.2585 14.3334ZM17.0752 14.3334H21.0418C21.1391 13.9445 21.2122 13.5603 21.2612 13.1807C21.3094 12.8019 21.3335 12.4084 21.3335 12C21.3335 11.5917 21.3094 11.1982 21.2612 10.8194C21.2122 10.4398 21.1391 10.0556 21.0418 9.66671H17.0752C17.1335 10.0556 17.1771 10.4398 17.2058 10.8194C17.2354 11.1982 17.2502 11.5917 17.2502 12C17.2502 12.4084 17.2354 12.8019 17.2058 13.1807C17.1771 13.5603 17.1335 13.9445 17.0752 14.3334ZM16.6085 7.33337H20.0502C19.4863 6.36115 18.7812 5.51532 17.935 4.79587C17.0896 4.07643 16.1224 3.54171 15.0335 3.19171C15.3835 3.83337 15.6899 4.49915 15.9528 5.18904C16.2149 5.87971 16.4335 6.59449 16.6085 7.33337V7.33337ZM9.7835 7.33337H14.2168C13.9835 6.47782 13.6821 5.67087 13.3127 4.91254C12.9432 4.15421 12.5057 3.42504 12.0002 2.72504C11.4946 3.42504 11.0571 4.15421 10.6877 4.91254C10.3182 5.67087 10.0168 6.47782 9.7835 7.33337ZM3.95016 7.33337H7.39183C7.56683 6.59449 7.78577 5.87971 8.04866 5.18904C8.31077 4.49915 8.61683 3.83337 8.96683 3.19171C7.87794 3.54171 6.91039 4.07643 6.06416 4.79587C5.21872 5.51532 4.51405 6.36115 3.95016 7.33337Z" fill="white"/>
</svg>
