<svg width="22" height="28" viewBox="0 0 22 28" fill="none" xmlns="http://www.w3.org/2000/svg">
<path d="M13.2628 0H4C3.07174 0 2.1815 0.368749 1.52513 1.02513C0.868749 1.6815 0.5 2.57174 0.5 3.5V24.5C0.5 25.4283 0.868749 26.3185 1.52513 26.9749C2.1815 27.6313 3.07174 28 4 28H18C18.9283 28 19.8185 27.6313 20.4749 26.9749C21.1313 26.3185 21.5 25.4283 21.5 24.5V8.23725C21.4999 7.77316 21.3155 7.32811 20.9872 7L14.5 0.51275C14.1719 0.184539 13.7268 9.91155e-05 13.2628 0V0ZM13.625 6.125V2.625L18.875 7.875H15.375C14.9109 7.875 14.4658 7.69063 14.1376 7.36244C13.8094 7.03425 13.625 6.58913 13.625 6.125ZM6.625 5.25V3.5H4.875V1.75H7.5V3.5H9.25V5.25H7.5V7H9.25V8.75H7.5V10.5H9.25V12.25H6.625V10.5H4.875V8.75H6.625V7H4.875V5.25H6.625ZM6.625 13.125H8.375C8.83913 13.125 9.28425 13.3094 9.61244 13.6376C9.94063 13.9658 10.125 14.4109 10.125 14.875V16.5165L10.825 19.3147C10.9122 19.6649 10.8891 20.0334 10.7588 20.3698C10.6284 20.7063 10.3973 20.9942 10.097 21.1943L8.4695 22.2792C8.1821 22.4707 7.84447 22.5729 7.49912 22.5729C7.15377 22.5729 6.81615 22.4707 6.52875 22.2792L4.90125 21.1943C4.60127 20.994 4.37049 20.7059 4.24048 20.3695C4.11048 20.0331 4.08761 19.6647 4.175 19.3147L4.875 16.5165V14.875C4.875 14.4109 5.05937 13.9658 5.38756 13.6376C5.71575 13.3094 6.16087 13.125 6.625 13.125V13.125Z" fill="white"/>
</svg>
