<svg width="26" height="24" viewBox="0 0 26 24" fill="none" xmlns="http://www.w3.org/2000/svg">
<path d="M23.5047 0.338013H2.50472C1.88645 0.339859 1.29403 0.586285 0.856844 1.02347C0.419659 1.46066 0.173233 2.05308 0.171387 2.67135V16.6713C0.173233 17.2896 0.419659 17.882 0.856844 18.3192C1.29403 18.7564 1.88645 19.0028 2.50472 19.0047H10.6714V21.338H8.33805V23.6713H17.6714V21.338H15.3381V19.0047H23.5047C24.123 19.0028 24.7154 18.7564 25.1526 18.3192C25.5898 17.882 25.8362 17.2896 25.8381 16.6713V2.67135C25.8362 2.05308 25.5898 1.46066 25.1526 1.02347C24.7154 0.586285 24.123 0.339859 23.5047 0.338013V0.338013ZM11.5487 13.9483H11.5476L6.00589 8.40668L7.65672 6.75818L11.5487 10.6502L18.3562 3.84151L20.0071 5.49235L11.5487 13.9483Z" fill="white"/>
</svg>
