<svg width="22" height="22" viewBox="0 0 22 22" fill="none" xmlns="http://www.w3.org/2000/svg">
<path fill-rule="evenodd" clip-rule="evenodd" d="M20.4556 19.2962C20.4225 19.8917 20.1626 20.4519 19.7294 20.8618C19.2961 21.2716 18.7223 21.5 18.1258 21.5H3.87381C3.27738 21.5 2.70357 21.2716 2.27028 20.8618C1.83698 20.4519 1.57708 19.8917 1.54398 19.2962L0.636897 2.96283C0.619288 2.64604 0.666473 2.32898 0.775566 2.03105C0.88466 1.73311 1.05337 1.46055 1.27138 1.23003C1.4894 0.999516 1.75213 0.815884 2.04353 0.690362C2.33493 0.56484 2.64886 0.500066 2.96615 0.5H19.0335C19.3508 0.499987 19.6648 0.564702 19.9563 0.690189C20.2477 0.815675 20.5105 0.999296 20.7286 1.22982C20.9467 1.46035 21.1155 1.73293 21.2246 2.03091C21.3337 2.32889 21.3809 2.64599 21.3633 2.96283L20.4556 19.2962ZM16.9755 7.37108C17.4538 7.05608 17.574 6.43133 17.1814 6.02475C16.5155 5.33759 15.7372 4.76905 14.8801 4.34358C13.6901 3.75331 12.3829 3.43699 11.0546 3.41783C9.72516 3.3958 8.40756 3.67123 7.19823 4.224C6.32633 4.62239 5.52845 5.16601 4.83865 5.83167C4.43206 6.226 4.52948 6.85367 4.99673 7.18383L7.51206 8.96067C7.97873 9.29083 8.63673 9.18408 9.12031 8.87608C9.24507 8.79695 9.37506 8.72639 9.5094 8.66492C9.93876 8.46853 10.4046 8.36459 10.8767 8.35983L12.856 6.08425C12.9575 5.96744 13.1012 5.89574 13.2556 5.88491C13.332 5.87955 13.4087 5.88929 13.4814 5.91358C13.5541 5.93788 13.6212 5.97625 13.6791 6.0265C13.7369 6.07675 13.7843 6.1379 13.8185 6.20646C13.8527 6.27503 13.873 6.34965 13.8784 6.42608C13.8838 6.50251 13.874 6.57925 13.8497 6.65191C13.8254 6.72458 13.7871 6.79175 13.7368 6.84958L12.2015 8.61417C12.4094 8.70022 12.608 8.80733 12.7941 8.93383C13.2666 9.25642 13.92 9.383 14.3983 9.068L16.9749 7.3705L16.9755 7.37108Z" fill="white"/>
</svg>
