<svg aria-hidden="true" style="position: absolute; width: 0; height: 0; overflow: hidden;" version="1.1" xmlns="http://www.w3.org/2000/svg" xmlns:xlink="http://www.w3.org/1999/xlink">
<defs>
<symbol id="icon-app_name" viewBox="0 0 25 32">
<path fill="#fff" style="fill: var(--color1, #fff)" d="M23.838 8.485c0.202 0.202 0.316 0.475 0.316 0.761v20.754c0 0.596-0.481 1.077-1.077 1.077h-21.538c-0.596 0-1.077-0.481-1.077-1.077v-28c0-0.596 0.481-1.077 1.077-1.077h14.293c0.286 0 0.562 0.114 0.764 0.316l7.242 7.246zM21.67 9.74l-6.334-6.334v6.334h6.334zM5.846 14.99c-0.071 0-0.14 0.028-0.19 0.079s-0.079 0.119-0.079 0.19v1.615c0 0.072 0.028 0.14 0.079 0.19s0.119 0.079 0.19 0.079h12.923c0.071 0 0.14-0.028 0.19-0.079s0.079-0.119 0.079-0.19v-1.615c0-0.071-0.028-0.14-0.079-0.19s-0.119-0.079-0.19-0.079h-12.923zM5.846 19.567c-0.071 0-0.14 0.028-0.19 0.079s-0.079 0.119-0.079 0.19v1.615c0 0.071 0.028 0.14 0.079 0.19s0.119 0.079 0.19 0.079h6.192c0.071 0 0.14-0.028 0.19-0.079s0.079-0.119 0.079-0.19v-1.615c0-0.071-0.028-0.14-0.079-0.19s-0.119-0.079-0.19-0.079h-6.192z"></path>
</symbol>
<symbol id="icon-author" viewBox="0 0 32 32">
<path fill="#fff" style="fill: var(--color1, #fff)" d="M27.576 25.617c1.547-1.861 2.622-4.067 3.136-6.431s0.45-4.818-0.184-7.153c-0.635-2.335-1.823-4.482-3.463-6.261s-3.685-3.136-5.961-3.957c-2.276-0.821-4.716-1.082-7.114-0.761s-4.684 1.216-6.663 2.607-3.595 3.239-4.709 5.387c-1.114 2.148-1.695 4.532-1.693 6.952 0.001 3.517 1.24 6.922 3.501 9.617l-0.022 0.018c0.075 0.090 0.162 0.168 0.239 0.257 0.097 0.111 0.201 0.215 0.302 0.323 0.302 0.327 0.612 0.642 0.937 0.937 0.099 0.090 0.201 0.175 0.302 0.261 0.345 0.297 0.699 0.579 1.066 0.842 0.047 0.032 0.090 0.074 0.138 0.108v-0.013c2.522 1.775 5.531 2.728 8.615 2.728s6.093-0.953 8.615-2.728v0.013c0.047-0.033 0.089-0.075 0.138-0.108 0.366-0.264 0.721-0.545 1.066-0.842 0.1-0.086 0.202-0.171 0.302-0.261 0.325-0.296 0.635-0.609 0.937-0.937 0.1-0.108 0.204-0.212 0.302-0.323 0.076-0.089 0.164-0.167 0.239-0.258l-0.024-0.017zM16 7.385c0.959 0 1.895 0.284 2.692 0.817s1.418 1.289 1.785 2.175 0.463 1.86 0.276 2.8c-0.187 0.94-0.648 1.804-1.326 2.481s-1.541 1.139-2.481 1.326c-0.94 0.187-1.914 0.091-2.8-0.276s-1.642-0.988-2.175-1.785c-0.533-0.797-0.817-1.734-0.817-2.692 0-1.285 0.511-2.518 1.419-3.427s2.141-1.419 3.427-1.419v0zM7.392 25.617c0.019-1.414 0.593-2.764 1.6-3.758s2.363-1.551 3.777-1.552h6.462c1.414 0.001 2.771 0.558 3.777 1.552s1.581 2.343 1.6 3.758c-2.362 2.128-5.429 3.306-8.608 3.306s-6.246-1.178-8.608-3.306v0z"></path>
</symbol>
<symbol id="icon-Burger" viewBox="0 0 52 32">
<path fill="none" stroke="#fff" style="stroke: var(--color1, #fff)" stroke-linejoin="miter" stroke-linecap="round" stroke-miterlimit="4" stroke-width="4" d="M2 2h48"></path>
<path fill="none" stroke="#fff" style="stroke: var(--color1, #fff)" stroke-linejoin="miter" stroke-linecap="round" stroke-miterlimit="4" stroke-width="4" d="M2 16h48"></path>
<path fill="none" stroke="#fff" style="stroke: var(--color1, #fff)" stroke-linejoin="miter" stroke-linecap="round" stroke-miterlimit="4" stroke-width="4" d="M2 30h48"></path>
</symbol>
<symbol id="icon-close" viewBox="0 0 32 32">
<path fill="#fff" style="fill: var(--color1, #fff)" d="M27.826 2.059l-11.826 11.826-11.826-11.826c-0.284-0.26-0.658-0.401-1.044-0.392s-0.753 0.165-1.025 0.438c-0.273 0.273-0.43 0.64-0.438 1.025s0.132 0.759 0.392 1.044l11.82 11.826-11.823 11.823c-0.144 0.138-0.26 0.303-0.34 0.486s-0.122 0.38-0.125 0.58c-0.002 0.199 0.035 0.397 0.11 0.582s0.187 0.353 0.327 0.494 0.309 0.253 0.494 0.328c0.185 0.075 0.383 0.113 0.582 0.111s0.397-0.044 0.58-0.124c0.183-0.079 0.348-0.195 0.486-0.339l11.829-11.823 11.826 11.826c0.284 0.26 0.658 0.401 1.044 0.392s0.753-0.165 1.025-0.438c0.273-0.273 0.43-0.64 0.438-1.025s-0.132-0.759-0.392-1.044l-11.826-11.826 11.826-11.829c0.144-0.138 0.26-0.303 0.34-0.486s0.122-0.38 0.125-0.579c0.002-0.2-0.035-0.398-0.11-0.582s-0.186-0.353-0.327-0.494c-0.141-0.141-0.309-0.253-0.494-0.328s-0.383-0.113-0.582-0.111c-0.199 0.002-0.397 0.044-0.58 0.124s-0.348 0.195-0.486 0.339v0.003z"></path>
</symbol>
<symbol id="icon-data" viewBox="0 0 29 32">
<path fill="#fff" style="fill: var(--color1, #fff)" d="M28.667 28.445v-21.778c0-1.716-1.395-3.111-3.111-3.111h-3.111v-3.111h-3.111v3.111h-9.333v-3.111h-3.111v3.111h-3.111c-1.716 0-3.111 1.395-3.111 3.111v21.778c0 1.716 1.395 3.111 3.111 3.111h21.778c1.716 0 3.111-1.395 3.111-3.111zM10 25.333h-3.111v-3.111h3.111v3.111zM10 19.111h-3.111v-3.111h3.111v3.111zM16.222 25.333h-3.111v-3.111h3.111v3.111zM16.222 19.111h-3.111v-3.111h3.111v3.111zM22.444 25.333h-3.111v-3.111h3.111v3.111zM22.444 19.111h-3.111v-3.111h3.111v3.111zM25.556 11.333h-21.778v-3.111h21.778v3.111z"></path>
</symbol>
<symbol id="icon-downloads" viewBox="0 0 32 32">
<path fill="#fff" style="fill: var(--color1, #fff)" d="M13.5 0h5c0.831 0 1.5 0.669 1.5 1.5v10.5h5.481c1.112 0 1.669 1.344 0.881 2.131l-9.506 9.513c-0.469 0.469-1.238 0.469-1.706 0l-9.519-9.513c-0.787-0.787-0.231-2.131 0.881-2.131h5.488v-10.5c0-0.831 0.669-1.5 1.5-1.5zM32 23.5v7c0 0.831-0.669 1.5-1.5 1.5h-29c-0.831 0-1.5-0.669-1.5-1.5v-7c0-0.831 0.669-1.5 1.5-1.5h9.169l3.062 3.063c1.256 1.256 3.281 1.256 4.538 0l3.062-3.063h9.169c0.831 0 1.5 0.669 1.5 1.5zM24.25 29c0-0.688-0.563-1.25-1.25-1.25s-1.25 0.563-1.25 1.25c0 0.688 0.563 1.25 1.25 1.25s1.25-0.563 1.25-1.25zM28.25 29c0-0.688-0.563-1.25-1.25-1.25s-1.25 0.563-1.25 1.25c0 0.688 0.563 1.25 1.25 1.25s1.25-0.563 1.25-1.25z"></path>
</symbol>
<symbol id="icon-file_download" viewBox="0 0 24 32">
<path fill="#fff" style="fill: var(--color1, #fff)" d="M14.088 8.425v-8.425h-12.579c-0.836 0-1.509 0.663-1.509 1.487v28.743c0 0.824 0.673 1.487 1.509 1.487h21.132c0.836 0 1.509-0.663 1.509-1.487v-20.318h-8.553c-0.83 0-1.509-0.669-1.509-1.487zM18.896 21.518l-6.064 5.928c-0.418 0.409-1.094 0.409-1.512 0l-6.064-5.928c-0.638-0.624-0.191-1.695 0.708-1.695h4.099v-4.956c0-0.548 0.45-0.991 1.006-0.991h2.013c0.556 0 1.006 0.444 1.006 0.991v4.956h4.099c0.898 0 1.346 1.071 0.709 1.695zM23.711 6.504l-6.157-6.071c-0.283-0.279-0.667-0.434-1.069-0.434h-0.384v7.929h8.050v-0.378c0-0.39-0.157-0.768-0.44-1.047z"></path>
</symbol>
<symbol id="icon-language" viewBox="0 0 32 32">
<path fill="#fff" style="fill: var(--color1, #fff)" d="M16 31.556c-2.126 0-4.135-0.409-6.028-1.226-1.893-0.816-3.545-1.931-4.958-3.345-1.413-1.412-2.528-3.065-3.344-4.957-0.817-1.893-1.226-3.902-1.226-6.028 0-2.152 0.409-4.167 1.226-6.046 0.816-1.88 1.931-3.526 3.344-4.939 1.412-1.413 3.065-2.529 4.958-3.346 1.893-0.816 3.902-1.224 6.028-1.224 2.152 0 4.167 0.408 6.046 1.224 1.88 0.817 3.526 1.933 4.939 3.346 1.413 1.412 2.528 3.059 3.344 4.939 0.817 1.879 1.226 3.895 1.226 6.046 0 2.126-0.409 4.135-1.226 6.028-0.816 1.893-1.931 3.545-3.344 4.957-1.413 1.414-3.059 2.528-4.939 3.345-1.879 0.817-3.895 1.226-6.046 1.226zM16 28.367c0.674-0.933 1.257-1.905 1.75-2.917s0.894-2.087 1.205-3.228h-5.911c0.311 1.141 0.713 2.217 1.206 3.228s1.076 1.983 1.75 2.917v0zM11.956 27.745c-0.467-0.856-0.875-1.744-1.224-2.665-0.351-0.92-0.642-1.872-0.876-2.858h-4.589c0.752 1.296 1.691 2.424 2.819 3.383 1.128 0.959 2.418 1.672 3.87 2.139zM20.045 27.745c1.452-0.467 2.741-1.18 3.869-2.139 1.128-0.959 2.068-2.087 2.82-3.383h-4.589c-0.233 0.985-0.525 1.938-0.874 2.858-0.351 0.921-0.759 1.809-1.226 2.665v0zM3.945 19.111h5.289c-0.078-0.519-0.136-1.031-0.176-1.537-0.038-0.505-0.058-1.030-0.058-1.574s0.019-1.069 0.058-1.574c0.039-0.506 0.098-1.018 0.176-1.537h-5.289c-0.13 0.519-0.227 1.031-0.292 1.537-0.064 0.505-0.096 1.030-0.096 1.574s0.032 1.069 0.096 1.574c0.065 0.506 0.163 1.018 0.292 1.537zM12.345 19.111h7.311c0.078-0.519 0.136-1.031 0.176-1.537 0.038-0.505 0.057-1.030 0.057-1.574s-0.019-1.069-0.057-1.574c-0.039-0.506-0.098-1.018-0.176-1.537h-7.311c-0.078 0.519-0.136 1.031-0.174 1.537-0.039 0.505-0.059 1.030-0.059 1.574s0.020 1.069 0.059 1.574c0.038 0.506 0.096 1.018 0.174 1.537zM22.767 19.111h5.289c0.13-0.519 0.227-1.031 0.293-1.537 0.064-0.505 0.096-1.030 0.096-1.574s-0.032-1.069-0.096-1.574c-0.065-0.506-0.163-1.018-0.293-1.537h-5.289c0.078 0.519 0.136 1.031 0.174 1.537 0.039 0.505 0.059 1.030 0.059 1.574s-0.020 1.069-0.059 1.574c-0.038 0.506-0.096 1.018-0.174 1.537zM22.145 9.778h4.589c-0.752-1.296-1.692-2.424-2.82-3.383-1.127-0.959-2.417-1.672-3.869-2.139 0.467 0.856 0.875 1.743 1.226 2.663 0.349 0.921 0.641 1.874 0.874 2.859v0zM13.045 9.778h5.911c-0.311-1.141-0.713-2.217-1.205-3.228s-1.076-1.983-1.75-2.917c-0.674 0.933-1.257 1.906-1.75 2.917s-0.895 2.087-1.206 3.228zM5.267 9.778h4.589c0.233-0.985 0.525-1.938 0.876-2.859 0.349-0.92 0.758-1.808 1.224-2.663-1.452 0.467-2.742 1.18-3.87 2.139-1.127 0.959-2.067 2.087-2.819 3.383z"></path>
</symbol>
<symbol id="icon-license" viewBox="0 0 25 32">
<path fill="#fff" style="fill: var(--color1, #fff)" d="M15.158 0h-10.586c-1.061 0-2.078 0.421-2.828 1.172s-1.172 1.768-1.172 2.828v24c0 1.061 0.421 2.078 1.172 2.828s1.768 1.172 2.828 1.172h16c1.061 0 2.078-0.421 2.828-1.172s1.172-1.768 1.172-2.828v-18.586c-0-0.53-0.211-1.039-0.586-1.414l-7.414-7.414c-0.375-0.375-0.884-0.586-1.414-0.586v0zM15.571 7v-4l6 6h-4c-0.53 0-1.039-0.211-1.414-0.586s-0.586-0.884-0.586-1.414zM7.571 6v-2h-2v-2h3v2h2v2h-2v2h2v2h-2v2h2v2h-3v-2h-2v-2h2v-2h-2v-2h2zM7.571 15h2c0.53 0 1.039 0.211 1.414 0.586s0.586 0.884 0.586 1.414v1.876l0.8 3.198c0.1 0.4 0.073 0.821-0.076 1.206s-0.413 0.714-0.756 0.942l-1.86 1.24c-0.328 0.219-0.714 0.336-1.109 0.336s-0.781-0.117-1.109-0.336l-1.86-1.24c-0.343-0.229-0.607-0.558-0.755-0.943s-0.175-0.805-0.075-1.206l0.8-3.198v-1.876c0-0.53 0.211-1.039 0.586-1.414s0.884-0.586 1.414-0.586v0z"></path>
</symbol>
<symbol id="icon-oc" viewBox="0 0 35 32">
<path fill="#fff" style="fill: var(--color1, #fff)" d="M31.34 0.451h-28c-0.824 0.002-1.614 0.331-2.197 0.914s-0.911 1.373-0.914 2.197v18.667c0.002 0.824 0.331 1.614 0.914 2.197s1.373 0.911 2.197 0.914h10.889v3.111h-3.111v3.111h12.444v-3.111h-3.111v-3.111h10.889c0.824-0.003 1.614-0.331 2.197-0.914s0.911-1.373 0.914-2.197v-18.667c-0.003-0.824-0.331-1.614-0.914-2.197s-1.373-0.911-2.197-0.914v0zM15.398 18.598h-0.001l-7.389-7.389 2.201-2.198 5.189 5.189 9.077-9.078 2.201 2.201-11.278 11.275z"></path>
</symbol>
<symbol id="icon-right_alt" viewBox="0 0 18 32">
<path fill="#fff" style="fill: var(--color1, #fff)" d="M0.914 26.286l10.286-10.286-10.286-10.286 2.057-4.114 14.4 14.4-14.4 14.4-2.057-4.114z"></path>
</symbol>
<symbol id="icon-right_arrow" viewBox="0 0 27 32">
<path fill="#fff" style="fill: var(--color1, #fff)" d="M3.278 31.378c0.252 0.131 0.534 0.191 0.817 0.173s0.556-0.112 0.79-0.273l20.222-14c0.207-0.143 0.375-0.334 0.492-0.557s0.178-0.47 0.178-0.722c0-0.251-0.061-0.499-0.178-0.722s-0.285-0.414-0.492-0.557l-20.222-14c-0.233-0.161-0.506-0.256-0.79-0.273s-0.566 0.043-0.817 0.175c-0.251 0.132-0.462 0.33-0.609 0.572s-0.225 0.521-0.225 0.805v28c-0 0.284 0.078 0.562 0.225 0.805s0.358 0.441 0.609 0.573z"></path>
</symbol>
<symbol id="icon-size" viewBox="0 0 32 32">
<path fill="#fff" style="fill: var(--color1, #fff)" d="M29.754 28.067c-0.048 0.866-0.426 1.681-1.056 2.277s-1.465 0.928-2.332 0.928h-20.73c-0.868 0-1.702-0.332-2.332-0.928s-1.008-1.411-1.056-2.277l-1.319-23.758c-0.026-0.461 0.043-0.922 0.202-1.355s0.404-0.83 0.721-1.165c0.317-0.335 0.699-0.602 1.123-0.785s0.88-0.277 1.342-0.277h23.371c0.462-0 0.918 0.094 1.342 0.277s0.806 0.45 1.123 0.785 0.563 0.732 0.721 1.165c0.159 0.433 0.227 0.895 0.202 1.356l-1.32 23.758zM24.692 10.722c0.696-0.458 0.871-1.367 0.299-1.958-0.969-1-2.101-1.826-3.347-2.445-1.731-0.859-3.632-1.319-5.564-1.347-1.934-0.032-3.85 0.369-5.609 1.173-1.268 0.579-2.429 1.37-3.432 2.338-0.591 0.574-0.45 1.487 0.23 1.967l3.659 2.585c0.679 0.48 1.636 0.325 2.339-0.123 0.181-0.115 0.371-0.218 0.566-0.307 0.625-0.286 1.302-0.437 1.989-0.444l2.879-3.31c0.148-0.17 0.357-0.274 0.581-0.29 0.111-0.008 0.223 0.006 0.328 0.042s0.203 0.091 0.288 0.164c0.084 0.073 0.153 0.162 0.203 0.262s0.079 0.208 0.087 0.319c0.008 0.111-0.006 0.223-0.042 0.328s-0.091 0.203-0.164 0.288l-2.233 2.567c0.302 0.125 0.591 0.281 0.862 0.465 0.687 0.469 1.638 0.653 2.333 0.195l3.749-2.468z"></path>
</symbol>
</defs>
</svg>
